<svg xmlns="http://www.w3.org/2000/svg" width="287.2" height="66.8" viewBox="-161 363.2 287.2 66.8"><path d="M-149.6 372.1c0 .5-.1 1.3-.4 2.4-.3 1.1-.6 2.3-1 3.7s-.8 2.9-1.3 4.5-.9 3.3-1.3 4.9c-.4 1.7-.7 3.3-1 4.9-.3 1.6-.4 3.1-.4 4.5 0 1.1.1 2.2.2 3.2s.4 1.8.7 2.5.7 1.3 1.2 1.7 1 .6 1.7.6 1.3-.2 1.9-.6c.6-.4 1.2-.9 1.7-1.6.6-.7 1.1-1.5 1.6-2.4s1-1.9 1.5-3 .9-2.2 1.3-3.4l1.2-3.6c1.3-4.3 2.5-9.1 3.5-14.5.2-.9.4-1.6.7-2.2.3-.6.6-1.1.9-1.4.4-.3.8-.6 1.3-.7.5-.1 1-.2 1.7-.2.6 0 1.1.1 1.5.2s.7.3.9.4.4.4.5.7.1.6.1.9c0 .1-.1.6-.2 1.4s-.3 1.8-.5 3.1-.4 2.7-.6 4.3-.4 3.2-.6 4.9-.4 3.3-.5 5-.2 3.1-.2 4.5.1 2.7.2 3.8c.1 1.1.3 2.1.5 2.9s.6 1.4.9 1.8c.4.4.9.6 1.4.6 1 0 1.9-.4 2.7-1.2.8-.8 1.6-1.8 2.2-3.1s1.3-2.8 1.8-4.5c.5-1.7 1.1-4 1.6-6.7.5-2.8.8-4.1.8-4.1s.2-1.5.5-4.5c.4-3 .6-5.1.7-6.2s.2-2 .3-2.6c.1-.7.2-1.2.5-1.7s.6-.7 1-1c.4-.2.9-.4 1.4-.5.5-.1 1-.1 1.6-.1.4 0 .8 0 1.2.1.3.1.6.2.9.4s.5.5.6.8c.1.3.2.7.2 1.2 0 1.4-.1 2.9-.4 4.6s-.6 3.3-1 5-.7 3.3-.8 4.9c-.1 1.6-.4 3.2-1 4.7s-.9 2.7-1.1 3.7c-.2 1-.3 1.6-.3 1.9 0 .7.1 1.4.3 1.9.2.5.4 1 .7 1.3.3.3.6.6 1 .7.4.2.8.2 1.3.2s.9-.1 1.4-.3c.5-.2.9-.5 1.4-.9.4-.4.8-.8 1.2-1.3.4-.5.7-1.1.9-1.7l.4 4.8c-1.2 1.2-2.3 2.2-3.6 2.9-1.2.7-2.4 1.1-3.5 1.1-.5 0-1-.1-1.5-.2-.5-.2-.9-.4-1.2-.7-.4-.3-.6-.7-.9-1.2-.2-.5-.4-1.1-.5-1.8-.8 1.3-1.6 2.5-2.5 3.6-.9 1.1-1.8 2-2.8 2.7-1 .8-2.1 1.3-3.2 1.7-1.1.4-2.2.6-3.4.6-1.5 0-2.7-.4-3.8-1.2s-1.9-1.8-2.5-3.2-1.1-2.9-1.4-4.7-.4-3.7-.4-5.8c0-.8 0-1.5.1-2.1s.1-1.2.2-1.8c-.6 3.6-1.3 6.5-2.1 8.9s-1.9 4.3-3 5.8-2.5 2.5-3.9 3.1-3.1.9-4.9.9c-1 0-2-.3-3-1s-1.8-1.7-2.5-3-1.3-3-1.7-5.1-.6-4.4-.6-7.1c0-1.7.1-3.4.3-5.1s.5-3.5.8-5.2.8-3.5 1.3-5.2 1.1-3.4 1.8-5c.4-.9.8-1.6 1.2-2.1s.8-.9 1.2-1.1.8-.4 1.2-.4.8-.1 1.3-.1c.3 0 .7 0 .9.1s.5.1.7.3.3.4.4.6.4.7.4 1.2z"/><path d="M-103.4 408.2c-1.5 0-2.7-.3-3.8-.8-1.1-.5-2-1.3-2.7-2.2-.7-.9-1.3-2-1.6-3.2-.4-1.2-.5-2.5-.5-3.8 0-.9.2-1.9.5-3.1.3-1.2.7-2.3 1-3.2.3-.9.8-1.8 1.3-2.6s1.1-1.6 1.9-2.2c.7-.6 1.5-1.1 2.4-1.5.9-.4 1.9-.6 2.9-.6.9 0 1.7.1 2.4.4.8.3 1.4.7 2 1.2.6.5 1 1.1 1.3 1.8.3.7.5 1.5.5 2.4 0 .9-.3 2-1 3.2-.6 1.2-1.4 2.2-2.2 3-.8.8-1.9 1.6-3 2.2s-2.4 1.2-3.8 1.5c.2.4.5.8.7 1 .2.3.5.5.7.6.2.2.5.3.7.3.3.1.5.1.8.1.9 0 1.9-.2 3-.5 1-.4 2.1-.8 3-1.4 1-.6 1.9-1.1 2.8-1.8.9-.6 1.6-1.3 2.2-1.8l3 3.1c-1.4 1.5-2.8 2.8-4.4 3.9-.7.5-1.4 1-2.2 1.4s-1.6.9-2.4 1.2c-.9.4-1.7.7-2.6.9-1 .4-1.9.5-2.9.5zm-3.1-11.1c.6 0 1.2-.1 1.8-.4.7-.3 1.3-.6 1.9-1.1.6-.4 1.1-1 1.7-1.8.5-.7.8-1.4.8-1.9 0-.7-.1-1.3-.4-1.7-.3-.4-.6-.7-1-.7-.7 0-1.3.1-1.7.4-.5.2-.9.6-1.2 1s-.6.8-.8 1.3c-.2.5-.4 1.1-.7 1.8-.3.7-.4 1.3-.4 1.8v1.3z"/><path d="M-86 389.3c.9-1.1 1.7-1.9 2.4-2.6.7-.7 1.4-1 2.2-1 .9 0 1.7.2 2.5.6.7.4 1.3.9 1.8 1.6.5.7.9 1.4 1.1 2.3.3.9.4 1.8.4 2.7 0 .8 0 1.6-.1 2.3l-.3 2.1c-.2.7-.4 1.4-.7 2s-.7 1.4-1.1 2.1c.6-.3 1.1-.7 1.7-1 .6-.3 1.2-.7 1.7-1s1.2-.8 1.8-1.3c.6-.5 1.2-1 1.8-1.6l1.8 3.9c-.9.8-1.7 1.5-2.6 2-.9.6-1.7 1.1-2.6 1.5-.9.4-1.8.8-2.8 1.1-1 .3-2 .6-3.1.8-.3.3-.6.5-1.1.8s-.9.5-1.4.7c-.5.3-1.1.5-1.7.7h-.6c-2.4 0-3.8 0-4-.1-1.9-.5-3.1-.9-3.5-1.2-.9-.6-1.8-1.2-2.6-1.8 0-1.3.1-2.7.3-4.3.1-1.4.3-3.1.5-5.1.3-3 .6-5.1.9-6.5.1-1.5.3-3.3.6-5.1.3-1.4.6-3.2 1-5.4s.9-4.1 1.5-6 1.3-3.4 2.1-4.9 1.6-2.6 2.5-3.4 1.9-1.3 3-1.3c1.2 0 2.1.2 2.9.6s1.3 1 1.7 1.7.6 1.5.8 2.4.2 1.9.2 3c0 1.5-.3 3-.8 4.6s-1.3 3.1-2.2 4.7-1.9 3.1-3 4.6-2.2 2.9-3.3 4.2l.3.6zm2.1 1.7c-.5 0-1.1.1-1.6.3-.5.2-1.1.6-1.5 1.1-.5.5-.9 1.1-1.2 1.9-.7 1.5-1 2.4-.8 2.7 0 0-.1 1-.3 2.8-.1.7-.2 1.3-.2 1.9-.1.6-.1 1.2-.2 1.8.5.2 1 .3 1.5.4.5.1.9.1 1.4 0s1-.1 1.4-.1c.5 0 1-.2 1.5-.5.4-.3.8-.7 1.2-1.3s.6-1.1.9-1.8.5-1.4.6-2.1c.2-.7.3-1.5.4-2.2.1-.7.1-1.4.1-2 0-.4 0-.8-.1-1.1-.1-.4-.2-.7-.5-.9s-.5-.5-.9-.6c-.6-.2-1.1-.3-1.7-.3zm2.3-21.4v-.4c0-.2-.1-.4-.2-.6-.1-.2-.2-.4-.4-.6s-.4-.3-.6-.3c-.3 0-.6.2-1 .7-.3.4-.7 1-1 1.8s-.6 1.6-1 2.6-.6 2-.9 3.1-.6 2.2-.8 3.3c-.2 1.1-.5 2.2-.7 3.2-.2 1-.4 1.9-.6 2.8-.2.8-.3 1.5-.4 2 .4-.8.9-1.7 1.4-2.5.5-.9 1-1.8 1.6-2.7.5-.9 1-1.9 1.5-2.9s1-2 1.4-3 .8-2.1 1-3.2c.5-1.1.7-2.2.7-3.3z"/><path d="M-63.2 389.3c.9-1.1 1.7-1.9 2.4-2.6.7-.7 1.4-1 2.2-1 .9 0 1.7.2 2.5.6.7.4 1.3.9 1.8 1.6.5.7.9 1.4 1.1 2.3.3.9.4 1.8.4 2.7 0 .8 0 1.6-.1 2.3l-.3 2.1c-.2.7-.4 1.4-.7 2s-.7 1.4-1.1 2.1c.6-.3 1.1-.7 1.7-1 .6-.3 1.2-.7 1.7-1s1.2-.8 1.8-1.3c.6-.5 1.2-1 1.8-1.6l1.8 3.9c-.9.8-1.7 1.5-2.6 2-.9.6-1.7 1.1-2.6 1.5-.9.4-1.8.8-2.8 1.1-1 .3-2 .6-3.1.8-.3.3-.6.5-1.1.8s-.9.5-1.4.7c-.5.3-1.1.5-1.7.7h-.6c-2.4 0-3.8 0-4-.1-1.9-.5-3.1-.9-3.5-1.2-.9-.6-1.8-1.2-2.6-1.8 0-1.3.1-2.7.3-4.3.1-1.4.3-3.1.5-5.1.3-3 .6-5.1.9-6.5.1-1.5.3-3.3.6-5.1.3-1.4.6-3.2 1-5.4s.9-4.1 1.5-6 1.3-3.4 2.1-4.9 1.6-2.6 2.5-3.4 1.9-1.3 3-1.3c1.2 0 2.1.2 2.9.6s1.3 1 1.7 1.7.6 1.5.8 2.4.2 1.9.2 3c0 1.5-.3 3-.8 4.6s-1.3 3.1-2.2 4.7-1.9 3.1-3 4.6-2.2 2.9-3.3 4.2l.3.6zm2.1 1.7c-.5 0-1.1.1-1.6.3-.5.2-1.1.6-1.5 1.1-.5.5-.9 1.1-1.2 1.9-.7 1.5-1 2.4-.8 2.7 0 0-.1 1-.3 2.8-.1.7-.2 1.3-.2 1.9-.1.6-.1 1.2-.2 1.8.5.2 1 .3 1.5.4.5.1.9.1 1.4 0s1-.1 1.4-.1c.5 0 1-.2 1.5-.5.4-.3.8-.7 1.2-1.3s.6-1.1.9-1.8.5-1.4.6-2.1c.2-.7.3-1.5.4-2.2.1-.7.1-1.4.1-2 0-.4 0-.8-.1-1.1-.1-.4-.2-.7-.5-.9s-.5-.5-.9-.6c-.6-.2-1.1-.3-1.7-.3zm2.3-21.4v-.4c0-.2-.1-.4-.2-.6-.1-.2-.2-.4-.4-.6s-.4-.3-.6-.3c-.3 0-.6.2-1 .7-.3.4-.7 1-1 1.8s-.6 1.6-1 2.6-.6 2-.9 3.1-.6 2.2-.8 3.3c-.2 1.1-.5 2.2-.7 3.2-.2 1-.4 1.9-.6 2.8-.2.8-.3 1.5-.4 2 .4-.8.9-1.7 1.4-2.5.5-.9 1-1.8 1.6-2.7.5-.9 1-1.9 1.5-2.9s1-2 1.4-3 .8-2.1 1-3.2c.4-1.1.6-2.2.7-3.3z"/><path d="M-38.9 408.6l.5-2.8c-.8.7-1.7 1.3-2.6 1.8-.9.5-1.8.7-2.7.7-.8 0-1.5-.2-2.2-.5s-1.3-.7-1.9-1.3-1-1.3-1.3-2.1-.5-1.7-.5-2.8c0-1.4.1-2.6.3-3.7.2-1.1.4-2.5.7-4.2.3-1.7.6-3 1-3.9s.8-1.9 1.3-2.9c.4-.7.9-1.2 1.5-1.6s1.3-.6 2-.6c.5 0 1 .1 1.4.4s.6.7.6 1.3c0 .2 0 .4-.1.6 0 .2-.1.4-.2.7-.3.7-.5 1.6-.7 2.6-.2 1-.4 2.3-.8 4-.3 1.7-.6 3-.8 3.9-.2 1-.3 1.8-.3 2.6 0 .4 0 .8.1 1.1s.2.7.3 1c.1.3.3.5.6.7s.5.3.9.3c.6 0 1.1-.3 1.6-.8s.9-1.1 1.2-1.8c.3-.7.6-1.4.8-2.2s.3-1.4.4-1.9l1.9-8.8c.1-.5.3-1 .7-1.4.3-.4.7-.8 1.1-1s.9-.5 1.3-.6.9-.2 1.3-.2c.5 0 .9.1 1.2.3.3.2.5.5.5 1 0 .1 0 .3-.1.5-.1.4-.2 1-.3 1.7-.1.7-.3 1.5-.4 2.4s-.4 2.1-.7 3.8c-.3 1.6-.5 2.9-.7 3.9-.4 2.3-.8 4.8-1.2 7.5.5-.3 1-.6 1.5-1s1.2-.9 1.8-1.6c.7-.7 1.4-1.5 2.3-2.5.8-1 1.8-2.2 2.8-3.7l1.1 5.2c-.3.5-.6 1-1.1 1.5l-1.5 1.5c-.8.7-1.3 1.2-1.7 1.4-.1.1-.7.5-1.7 1.3-.3.3-1.3 1-3.1 2.2-.4.3-.7.8-.9 1.5s-.3 2.1-.5 4.1c-.1.6-.1 1-.2 1.3-.1.7-.2 1.5-.3 2.1s-.2 1.4-.5 2.3c-.2.9-.5 1.7-.8 2.4-.3.7-.7 1.4-1.2 2.2-.5.7-1 1.3-1.6 1.8-.6.5-1.3.9-2.1 1.2-.8.3-1.7.5-2.7.5-.8 0-1.5-.1-2.2-.3-.7-.2-1.3-.5-1.9-.8-.6-.4-1-.9-1.4-1.5-.4-.6-.6-1.4-.6-2.3-.1-1.7.3-3.4 1.4-5.2.6-1 1-1.7 1.2-2.1.2-.4.6-1 1.1-1.7.5-.7 1-1.4 1.6-2 1.1-1.2 2-2.2 2.7-3 .9-.8 1.8-1.6 2.8-2.5zm0 5.7c-1.1.8-2.2 2-3.2 3.7-1.1 1.7-1.9 3.5-2.5 5.2-.5 1.5-.3 2.3.8 2.3.4 0 .7 0 1-.1s.6-.3.8-.5.5-.5.7-.8.4-.7.6-1.2l.6-1.5c.2-.5.4-1.2.6-2l.3-1.5c.1-.6.1-1.2.2-2 .1-.9.1-1.4.1-1.6zM-5.3 405.9c-.1.5-.2.9-.4 1.1s-.5.5-.8.7c-.3.2-.7.3-1.1.4-.4.1-.7.1-1.1.1-.4 0-.8 0-1.2-.1-.4-.1-.7-.2-1-.4s-.5-.4-.7-.7-.3-.6-.3-.9c0-.6 0-1.2.1-1.8s.2-1.1.3-1.6c.4-1.8.8-3.5 1.1-5.1s.7-3 1.2-4.4c.5-1.4.8-2.7.9-4.1s.3-2.7.5-4 .2-2.7.2-4.2c0-1.4-.1-3-.1-4.6v-.5c0-.2 0-.4-.1-.6 0-.2-.1-.4-.2-.5s-.3-.2-.5-.2c-.4 0-.8.1-1.3.4s-1 .6-1.6 1-1.1.9-1.7 1.5c-.6.6-1.1 1.2-1.6 1.9-.1.2-.2.4-.4.5-.2.1-.4.2-.6.2-.1 0-.2-.1-.2-.2-.1-.1-.2-.3-.2-.5-.1-.2-.1-.4-.2-.6 0-.2-.1-.4-.1-.6 0-.1 0-.2.1-.2.6-1.8 1.2-3.4 1.9-4.6s1.5-2.2 2.3-3 1.6-1.3 2.4-1.6 1.6-.5 2.4-.5c1 0 1.8.2 2.4.6s1.1.9 1.5 1.5.6 1.5.8 2.4.2 2 .2 3.1c0 .9-.1 1.9-.3 3.1-.2 1.2-.4 2.4-.5 3.7-.2 1.3-.4 2.6-.7 3.9-.3 1.3-.6 2.5-.8 3.6.5-2.1 1.1-4.1 1.8-6 .7-1.9 1.4-3.7 2.3-5.4s1.7-3.2 2.6-4.5c.9-1.4 1.9-2.5 2.8-3.5s2-1.7 3-2.3c1-.5 2-.8 3-.8.7 0 1.4.2 2 .5s1.1.8 1.6 1.5.8 1.5 1 2.5.4 2.2.4 3.6v.6c0 .3-.1.6-.1.9s-.1.7-.1 1.1-.1.8-.2 1.2c-.1.9-.3 2-.4 3h.5c.6-2.3 1.4-4.4 2.2-6.2.9-1.8 1.9-3.4 3-4.7s2.3-2.3 3.6-3c1.3-.7 2.6-1 4-1 .9 0 1.8.3 2.5.8s1.4 1.3 1.8 2.3.9 2.1 1.1 3.4.4 2.7.4 4.1c0 1.3-.1 2.8-.4 4.2-.3 1.5-.5 2.9-.8 4.4-.3 1.5-.5 2.9-.8 4.3s-.5 2.7-.7 4c-.2 1.3-.4 2.4-.6 3.5-.2 1.1-.3 1.9-.3 2.4 0 .7.2 1.2.5 1.5.3.3.8.5 1.5.5.4 0 .7-.1 1.1-.3s.8-.5 1.2-.8.8-.7 1.2-1.1c.4-.4.8-.8 1.1-1.3.8-1 1.6-2.1 2.5-3.4 0 0 .1.2.2.5s.3.7.5 1.4c.2.6.6 1.6 1.1 2.8-.8 1.4-1.6 2.5-2.4 3.5-.8 1-1.7 1.7-2.5 2.3-.9.6-1.7 1-2.6 1.3-.9.3-1.8.4-2.6.4s-1.7-.1-2.5-.4-1.5-.7-2.1-1.3c-.6-.6-1.1-1.3-1.5-2.2-.4-.9-.6-1.9-.6-3v-.4-.4c.1-1 .2-2.2.4-3.4.2-1.2.4-2.4.7-3.7.2-1.3.5-2.6.7-3.9s.5-2.6.7-4c.2-1.3.5-2.6.7-3.9.2-1.3.3-2.4.3-3.3 0-.7 0-1.3-.1-1.9 0-.6-.1-1.1-.3-1.5-.1-.4-.3-.7-.6-.9s-.6-.3-1.1-.3c-.9 0-1.7.3-2.5.9s-1.5 1.4-2.2 2.4c-.7 1-1.4 2.2-2 3.6s-1.2 2.9-1.7 4.5-1 3.3-1.4 5.1c-.4 1.8-.8 3.6-1.2 5.5s-.8 3.7-1 5.4-.5 3.3-.8 4.9c-.1.4-.3.8-.5 1.1-.2.3-.5.6-.8.7s-.6.3-.9.4-.7.1-1 .1c-.3 0-.7-.1-1-.2-.3-.1-.6-.3-.8-.6-.2-.3-.4-.6-.6-1s-.2-.9-.2-1.5c-.3-.4-.4-1.1-.2-2.1s.4-2.2.7-3.5c.3-1.4.6-2.9.9-4.6.4-1.7.7-3.4 1-5 .3-1.7.6-3.4.9-5 .3-1.7.5-3.2.5-4.6 0-1 0-1.8-.1-2.6 0-.8-.2-1.4-.3-1.9-.2-.5-.4-.9-.8-1.2s-.8-.4-1.3-.4-1 .3-1.6.9c-.6.6-1.2 1.4-1.9 2.5-.7 1-1.4 2.3-2.1 3.7-.7 1.4-1.4 2.9-2.1 4.6s-1.4 3.4-2 5.1c-.7 1.8-1.2 3.6-1.6 5.4-.4 1.8-.9 3.6-1.3 5.3s-1 2.8-1.4 4.2z"/><path d="M52.3 390.2c.5.9.8 1.9 1 2.9s.3 2.1.3 3.4c0 .9-.1 1.9-.3 2.8s-.5 1.8-.9 2.7-.9 1.7-1.4 2.5-1.2 1.4-1.9 2-1.5 1-2.3 1.3-1.7.5-2.7.5c-1.4 0-2.6-.3-3.5-.9s-1.8-1.4-2.4-2.4-1.1-2.1-1.4-3.3-.4-2.5-.4-3.7c0-2.1.3-3.8.8-5.3s1.3-2.8 2.2-3.9 2.1-2 3.5-2.6 3-.9 4.7-.9c1.5 0 2.9.2 4.2.7s2.5 1.1 3.6 1.9 2.2 1.7 3.2 2.9 1.9 2.3 2.7 3.4l-.4 3.3c-.4-.6-1-1.2-1.7-1.8s-1.5-1.4-2.3-2.2-1.6-1.5-2.4-2-1.5-1-2-1.4l-.2.1zm-7.2 13.5c.5 0 1-.3 1.5-.8s.9-1.2 1.3-2 .7-1.8.9-3 .3-2.2.3-3.1c0-.7-.1-1.4-.2-2s-.3-1.2-.5-1.6-.5-.8-.8-1.1-.8-.4-1.2-.4c-.6 0-1.3.3-1.8.8s-1.1 1.2-1.5 2.1-.8 1.8-1 2.8-.4 2.2-.4 3.5c0 .7.1 1.3.2 1.9s.3 1.1.6 1.5.6.8 1.1 1 .9.4 1.5.4z"/><path d="M58.1 403.3c0-1 .1-2.2.2-3.6s.3-2.8.5-4.5.4-3.1.6-4.4.5-2.4.7-3.3c.2-.7.5-1.3 1-1.8s1.2-.7 2-.7 1.4.3 1.8.8.5 1.2.5 2.1c0 .2 0 .6-.1.9s-.1.8-.2 1.3-.1 1-.2 1.5-.2 1.1-.2 1.7-.1 1.1-.2 1.5-.1.5-.1.6h.5l.4-.8c.2-.4.4-.9.7-1.7s.6-1.4.9-1.9.6-1.1.9-1.6.5-1 .7-1.3.4-.7.5-.9c.5-.8 1.1-1.4 1.7-1.7s1.4-.5 2.1-.5 1.4.3 1.9 1 .7 1.6.7 2.7c0 .2 0 .5-.1.9s-.2.9-.3 1.5-.2 1.3-.4 2.2-.3 1.7-.4 2.4l-.3 2.1c-.1.7-.1 1.3-.1 1.9 0 1 .1 1.8.4 2.4s.6.9 1.1.9c.2 0 .5-.1.8-.2.5-.2.8-.4 1-.5.7-.5 1-.8 1.1-.8 0 0 .6-.3 1.6-.9 1.3-.8 2.7-1.8 4.5-2.9v5.3l-1.2.9c-.1.1-.8.5-2.2 1.2-2 1.1-3.2 1.7-3.7 1.9-1.2.5-2 .9-2.3.9-.8.3-1.6.4-2.5.4s-1.6-.6-2.2-1.9-.9-3.1-.9-5.4c0-.9.1-1.9.2-3s.3-2.3.5-3.5h-.4l-6.1 12.2c-.3.7-.7 1.1-1.1 1.3-.4.2-.8.4-1.4.4-.6 0-1.2-.1-1.5-.4s-.7-.6-.9-1.1-.4-1-.4-1.6-.1-1.3-.1-2z"/><path d="M88.4 395.3c.6-.7 1.2-1.5 1.9-2.4.7-.9 1.3-1.7 2-2.5.6-.8 1.3-1.6 2-2.5.7-.9 1.1-1.4 1.5-1.6.5-.4 1.1-.6 1.8-.9.7-.2 1.5-.4 2.3-.4.4 0 .9.1 1.3.3s.7.5 1 .9c.3.4.5.8.7 1.4.2.5.3 1.1.3 1.8s-.2 1.4-.6 2.3c-.4.9-.9 1.7-1.3 2.3s-1 1.3-1.5 2-1.1 1.3-1.5 2-.9 1.3-1.2 2-.5 1.3-.5 2c0 .6.1 1 .4 1.2.3.2.7.4 1.3.4.3 0 .7-.1 1-.3.4-.2.7-.5 1.1-.8.4-.3.8-.7 1.2-1.2s.8-.9 1.1-1.3.7-.9 1-1.3c.3-.4.6-.8.9-1l1.4 5.8c-.5.7-1.1 1.3-1.8 1.8-.7.6-1.5 1.1-2.4 1.5s-1.8.7-2.7 1c-.9.2-1.8.3-2.7.3-1.1 0-2-.1-2.8-.4-.7-.3-1.3-.6-1.7-1-.4-.4-.7-.9-.8-1.4-.1-.5-.2-1.1-.2-1.7 0-.4 0-.8.1-1.3s.3-1.1.5-1.8.6-1.4 1-2.2 1-1.7 1.7-2.6l.8-.8.6-.6c.2-.2.3-.4.4-.5.1-.2.1-.3.1-.5 0-.3-.1-.6-.2-.8s-.3-.3-.5-.3c-.3 0-.6.2-1 .5-.4.4-.9 1-1.4 1.8l-6.9 12c-.4.6-.8 1-1.1 1.2-.4.2-.8.3-1.3.3-.7 0-1.2-.1-1.6-.4-.4-.3-.7-.6-.9-1.1-.2-.5-.3-1-.4-1.6-.1-.6-.1-1.3-.1-2 0-.9 0-2.1.1-3.6s.2-3.1.3-4.9.3-3.7.5-5.6.5-3.9.8-5.7c.1-.6.3-1.4.4-2.3s.4-1.9.7-2.9c.3-1 .6-2.1.9-3.3.3-1.1.7-2.2 1.2-3.3.5-1.1 1-2.1 1.6-3 .6-1 1.2-1.8 1.9-2.5s1.5-1.3 2.4-1.7c.9-.4 1.8-.6 2.8-.6.8 0 1.5.1 2 .4.5.3.9.6 1.2 1.1s.5 1 .6 1.6.2 1.3.2 2.1c0 1.3-.2 2.8-.5 4.3s-.8 3.1-1.3 4.6c-.5 1.5-1.1 3.1-1.7 4.5s-1.2 2.8-1.8 4l-1.5 3c-.4.8-.7 1.3-.9 1.6l-2.8 4.2.6.4zm4.6-26.5c-.5 0-.9.2-1.3.5s-.7.8-1 1.3c-.3.6-.7 1.3-1 2.1-.3.8-.7 1.7-1.1 2.8-.2.9-.5 1.8-.7 2.8-.2 1-.4 1.9-.6 2.9-.1.9-.3 1.9-.4 2.8-.1.9-.3 1.8-.4 2.6-.2 2-.4 3.9-.6 5.8.3-1 .7-2.2 1.1-3.4l1.2-3.6c.4-1.2.8-2.3 1.1-3.4s.7-1.9.9-2.7c.1-.3.3-.8.5-1.3s.4-1.1.7-1.7c.2-.6.5-1.2.7-1.9.2-.6.5-1.3.7-1.9s.4-1.1.5-1.7c.1-.5.2-1 .2-1.3 0-.4-.2-.7-.5-.7z"/><path d="M102.9 399.4c.9-.8 1.6-1.4 2.1-1.9s1.1-1.1 1.6-1.8 1-1.2 1.3-1.6c.3-.4.7-.9 1.1-1.5.4-.6 1-1.3 1.6-2.1.6-.8 1.4-1.9 2.4-3.2.2-.3.4-.6.7-.8.2-.3.5-.5.8-.7s.6-.4 1-.5c.4-.1.8-.2 1.2-.2.8 0 1.3.1 1.7.2s.7.4.9.6c.2.2.3.5.3.7v.7c0 .4-.1.8-.4 1.3s-.6.9-1 1.3-.7.8-1 1.2c-.3.4-.5.6-.6.8 0 .5 0 .9.1 1.3l.3 1.2c.1.4.2.8.4 1.2.1.4.3.9.4 1.5.1.6.1 1.4 0 2.3-.1 1-.1 2-.1 3 .6-.4 1.2-.7 1.8-1s1.3-.6 2-1c.7-.3 1.4-.7 2.2-1.1.7-.4 1.5-.9 2.2-1.5v5.3c-1 .7-2.1 1.4-3.4 2s-2.6 1.2-4 1.7-2.8.9-4.3 1.1c-1.4.3-2.8.4-4.1.4-.9 0-1.8-.1-2.6-.2-.8-.2-1.5-.4-2.1-.8-.6-.4-1.1-.8-1.5-1.4-.4-.6-.6-1.3-.7-2.1-.2 0-.4.1-.6.1H101.3c-.2 0-.4-.1-.6-.2-.2-.1-.3-.3-.4-.5-.1-.2-.1-.6-.1-1s.1-.7.3-1.1c.2-.3.4-.6.7-.9.2-.3.5-.5.8-.7.6.1.8 0 .9-.1zm2.9 3c.2 0 .4.1.6.4s.5.5.8.8.6.5 1 .8c.4.2.8.4 1.3.4.6 0 1.1-.1 1.5-.3s.7-.5.9-.8.4-.7.5-1.2.1-.9.1-1.4c0-.4 0-.9-.1-1.3s0-1 0-1.6.1-1.2 0-1.5c-.1-.4-.2-.7-.3-.9l-6.3 6.6z"/></svg>